<svg width="165" height="69" fill="none" xmlns="http://www.w3.org/2000/svg"><path d="M1.719 45V14.922h3.738v13.105h3.867v3.653H5.457V45H1.719Zm9.754-13.32v-3.653h3.824V14.922h3.781V45h-3.781V31.68h-3.824Zm10.957 6.96V28.028c0-1.346.601-2.664 1.804-3.953 1.49-1.547 3.352-2.32 5.586-2.32v3.48c-1.69 0-2.864.702-3.523 2.106-.2.43-.3.86-.3 1.289v9.453c0 1.06.486 1.962 1.46 2.707a3.835 3.835 0 0 0 2.363.773v3.481c-2.721 0-4.826-1.103-6.316-3.309-.716-1.088-1.074-2.12-1.074-3.093Zm9.238 6.403v-3.48c1.518 0 2.607-.688 3.266-2.063.229-.458.343-.902.343-1.332v-9.54c0-1.174-.501-2.105-1.504-2.792-.63-.401-1.346-.602-2.148-.602v-3.48c2.635 0 4.67 1.074 6.102 3.223.716 1.06 1.074 2.076 1.074 3.05v10.614c0 1.403-.602 2.764-1.805 4.082-1.404 1.518-3.18 2.291-5.328 2.32Zm10.398-6.23V21.797h3.653v16.586c0 1.031.515 1.89 1.547 2.578.687.43 1.446.645 2.277.645v3.609c-2.75 0-4.87-1.074-6.36-3.223-.744-1.088-1.117-2.148-1.117-3.18Zm9.368 6.402v-3.61c1.547 0 2.678-.615 3.394-1.847.258-.459.387-.917.387-1.375V21.797h3.652v17.015c0 1.347-.616 2.679-1.847 3.997-1.49 1.575-3.352 2.377-5.586 2.406Zm9.925-6.317 3.395-.644c0 1.289.673 2.306 2.02 3.05.658.316 1.288.488 1.89.516v3.395c-2.779 0-4.855-1.003-6.23-3.008-.717-1.06-1.075-2.163-1.075-3.309Zm.215-10.57c0-2.607 1.189-4.54 3.567-5.8 1.145-.602 2.291-.903 3.437-.903v3.352c-1.318 0-2.335.544-3.05 1.632-.373.545-.56 1.118-.56 1.72 0 .916.717 1.66 2.15 2.233 1.088.459 3.193 1.06 6.316 1.805 1.948.401 3.337 1.36 4.168 2.88.43.801.644 1.703.644 2.706 0 2.75-1.103 4.784-3.308 6.102-1.29.773-2.765 1.16-4.426 1.16V41.82c1.317 0 2.42-.458 3.308-1.375.63-.659.946-1.432.946-2.32 0-1.146-1.132-2.063-3.395-2.75a68.414 68.414 0 0 0-2.75-.73c-1.346-.316-2.32-.573-2.922-.774-2.177-.86-3.495-2.163-3.953-3.91a7.509 7.509 0 0 1-.172-1.633Zm8.895-3.308v-3.395c2.463 0 4.454.917 5.972 2.75.946 1.174 1.418 2.406 1.418 3.695l-3.394.559c0-1.576-.86-2.678-2.578-3.309-.516-.2-.989-.3-1.418-.3ZM80.78 38.64V27.985c.029-1.317.66-2.62 1.89-3.91 1.49-1.518 3.295-2.291 5.415-2.32v3.394c-1.375 0-2.45.602-3.223 1.805-.315.516-.472.988-.472 1.418v2.922h9.625v-2.922c0-1.289-.66-2.234-1.977-2.836a4.254 4.254 0 0 0-1.848-.43v-3.351c1.977 0 3.739.702 5.286 2.105 1.289 1.232 1.947 2.593 1.976 4.082v6.832H84.391v3.868c0 .802.458 1.547 1.375 2.234.744.516 1.532.773 2.363.773V45c-2.607 0-4.655-1.06-6.145-3.18-.802-1.117-1.203-2.177-1.203-3.18Zm9.41 6.36v-3.395c1.72 0 3.008-.744 3.868-2.234.172-.315.3-.616.386-.902l3.051 1.117c-.515 1.977-1.69 3.466-3.523 4.469A7.876 7.876 0 0 1 90.19 45Zm9.41-30.078h3.782l7.648 26.125L109.656 45h-1.332l-8.722-30.078Zm10.485 15.941 5.328-15.941h3.781c-.257.83-1.332 4.154-3.222 9.969a2270.644 2270.644 0 0 0-3.782 11.644h-.429l-1.676-5.672Zm11.172 5.758V22.484c0-1.518.644-3.065 1.933-4.64 1.719-2.063 3.896-3.108 6.532-3.137v3.738c-1.748 0-3.108.888-4.082 2.664-.401.774-.602 1.461-.602 2.063v13.45c0 1.804.888 3.207 2.664 4.21.745.43 1.404.645 1.977.645v3.738c-1.633 0-3.266-.587-4.899-1.762-2.32-1.719-3.495-3.996-3.523-6.832Zm10.785 8.594v-3.738c1.003 0 2.019-.444 3.051-1.332 1.088-.974 1.647-2.149 1.676-3.524v-13.45c0-1.116-.459-2.19-1.375-3.222-.946-.974-2.063-1.475-3.352-1.504v-3.738c2.893 0 5.214 1.246 6.961 3.738 1.003 1.433 1.504 2.779 1.504 4.04V36.62c0 3.18-1.418 5.615-4.254 7.305-1.49.86-2.893 1.289-4.211 1.289ZM143.988 45h3.739V14.922h-3.739V45Zm5.887-13.45h4.641c3.752-.028 6.101-1.46 7.046-4.296.373-1.146.559-2.507.559-4.082 0-5.242-2.363-7.992-7.09-8.25h-5.156v3.61h4.039c2.893.056 4.354 1.603 4.383 4.64-.057 3.122-1.504 4.698-4.34 4.726h-4.082v3.653ZM.312 66l3.312-4.392L.516 57.48H1.5l2.832 3.792h1.164V57.48h.828v3.792h1.152l2.844-3.792h.984l-3.12 4.128L11.496 66h-.972L7.5 62.04H6.324V66h-.828v-3.96H4.308L1.284 66H.312Zm14.068 0v-8.52h.828v7.368l5.28-7.368h.78V66h-.828v-7.236L15.22 66h-.84Zm16.557-7.776h-3.036V66h-.84v-7.776h-3.036v-.744h6.912v.744ZM39.414 66v-7.776h-3.48l-.048 1.8c-.04 1.176-.124 2.152-.252 2.928-.128.776-.308 1.388-.54 1.836-.232.44-.516.756-.852.948-.336.184-.736.276-1.2.276v-.744c.312 0 .588-.08.828-.24.24-.16.444-.44.612-.84.168-.4.3-.952.396-1.656.104-.712.172-1.612.204-2.7l.072-2.352h5.088V66h-.828Zm7.83.06c-.6 0-1.144-.12-1.632-.36a3.947 3.947 0 0 1-1.26-.972 4.686 4.686 0 0 1-.816-1.392 4.574 4.574 0 0 1-.288-1.596c0-.568.1-1.108.3-1.62.2-.52.48-.98.84-1.38a4.066 4.066 0 0 1 1.284-.96 3.54 3.54 0 0 1 1.584-.36c.6 0 1.144.124 1.632.372s.904.58 1.248.996c.352.416.624.88.816 1.392a4.507 4.507 0 0 1-.852 4.584c-.36.4-.784.716-1.272.948a3.642 3.642 0 0 1-1.584.348Zm-3.156-4.32c0 .464.076.912.228 1.344.152.424.368.804.648 1.14.28.328.612.592.996.792.392.192.82.288 1.284.288.488 0 .924-.1 1.308-.3a3.19 3.19 0 0 0 .996-.816 3.69 3.69 0 0 0 .636-1.152 4.005 4.005 0 0 0-.012-2.628 3.605 3.605 0 0 0-.66-1.14c-.28-.336-.612-.6-.996-.792a2.804 2.804 0 0 0-1.272-.288c-.48 0-.916.1-1.308.3a3.15 3.15 0 0 0-.996.816 3.874 3.874 0 0 0-.636 1.14 4.005 4.005 0 0 0-.216 1.296Zm16.584 2.064c0 .424-.108.804-.324 1.14a2.3 2.3 0 0 1-.876.78c-.36.184-.756.276-1.188.276h-4.02v-8.52h4.104c.4 0 .744.108 1.032.324.296.208.52.48.672.816a2.325 2.325 0 0 1-.084 2.208c-.216.36-.516.628-.9.804a2.1 2.1 0 0 1 1.152.804c.288.392.432.848.432 1.368Zm-.84-.144c0-.288-.064-.552-.192-.792a1.597 1.597 0 0 0-.528-.6 1.26 1.26 0 0 0-.744-.228h-3.264v3.228h3.18c.288 0 .548-.076.78-.228a1.69 1.69 0 0 0 .552-.588c.144-.248.216-.512.216-.792Zm-4.728-5.448v3.144h2.928c.28 0 .528-.072.744-.216a1.666 1.666 0 0 0 .708-1.356c0-.288-.06-.548-.18-.78a1.504 1.504 0 0 0-.492-.576 1.214 1.214 0 0 0-.708-.216h-3ZM63.744 66v-8.52h.828v7.368l5.28-7.368h.78V66h-.828v-7.236L64.584 66h-.84Zm10.558 0v-8.52h.827v7.368l5.28-7.368h.78V66h-.827v-7.236L75.142 66h-.84Zm3.455-9.24c-.392 0-.724-.056-.996-.168a1.405 1.405 0 0 1-.6-.48 1.286 1.286 0 0 1-.216-.672h.66a.848.848 0 0 0 .252.564c.168.168.469.252.9.252.416 0 .709-.076.876-.228a.822.822 0 0 0 .264-.588h.66c-.008.24-.08.464-.216.672-.135.2-.335.36-.6.48-.255.112-.584.168-.984.168ZM89.31 66v-8.52h.84v3.792h1.284l2.928-3.792h.972l-3.204 4.128L95.537 66h-1.032l-3.048-3.96H90.15V66h-.84Zm12.009.06c-.6 0-1.144-.12-1.632-.36a3.947 3.947 0 0 1-1.26-.972 4.686 4.686 0 0 1-.816-1.392 4.574 4.574 0 0 1-.288-1.596c0-.568.1-1.108.3-1.62.2-.52.48-.98.84-1.38a4.066 4.066 0 0 1 1.284-.96 3.54 3.54 0 0 1 1.584-.36c.6 0 1.144.124 1.632.372s.904.58 1.248.996c.352.416.624.88.816 1.392a4.507 4.507 0 0 1-.852 4.584c-.36.4-.784.716-1.272.948a3.642 3.642 0 0 1-1.584.348Zm-3.156-4.32c0 .464.076.912.228 1.344.152.424.368.804.648 1.14.28.328.612.592.996.792.392.192.82.288 1.284.288.488 0 .924-.1 1.308-.3a3.19 3.19 0 0 0 .996-.816 3.69 3.69 0 0 0 .636-1.152 4.005 4.005 0 0 0-.012-2.628 3.605 3.605 0 0 0-.66-1.14c-.28-.336-.612-.6-.996-.792a2.804 2.804 0 0 0-1.272-.288c-.48 0-.916.1-1.308.3a3.15 3.15 0 0 0-.996.816 3.874 3.874 0 0 0-.636 1.14 4.005 4.005 0 0 0-.216 1.296ZM115.886 66v-6.936l-3.084 5.388h-.528l-3.096-5.388V66h-.84v-8.52h.864l3.324 5.832 3.348-5.832h.852V66h-.84Zm4.415 0v-8.52h6.432V66h-.84v-7.776h-4.752V66h-.84Zm15.767 0v-7.776h-3.48l-.048 1.8c-.04 1.176-.124 2.152-.252 2.928-.128.776-.308 1.388-.54 1.836-.232.44-.516.756-.852.948-.336.184-.736.276-1.2.276v-.744c.312 0 .588-.08.828-.24.24-.16.444-.44.612-.84.168-.4.3-.952.396-1.656.104-.712.172-1.612.204-2.7l.072-2.352h5.088V66h-.828Zm10.122-.744V66h-5.724v-8.52h5.616v.744h-4.776v3.072h4.164v.708h-4.164v3.252h4.884Zm3.029.744v-8.52h.84v3.792h1.284l2.928-3.792h.972l-3.204 4.128L155.447 66h-1.032l-3.048-3.96h-1.308V66h-.84Zm8.013-4.32c0-.52.088-1.028.264-1.524a4.5 4.5 0 0 1 .792-1.368 3.68 3.68 0 0 1 1.272-.984c.504-.248 1.076-.372 1.716-.372.76 0 1.408.176 1.944.528.544.344.944.788 1.2 1.332l-.66.408a2.463 2.463 0 0 0-.696-.888 2.656 2.656 0 0 0-.9-.48 3.168 3.168 0 0 0-.936-.144c-.512 0-.964.104-1.356.312-.392.2-.724.472-.996.816a3.615 3.615 0 0 0-.6 1.14c-.136.416-.204.84-.204 1.272a3.873 3.873 0 0 0 .912 2.508c.288.328.624.592 1.008.792.392.192.816.288 1.272.288a3.102 3.102 0 0 0 1.92-.684c.296-.232.532-.532.708-.9l.696.36a2.694 2.694 0 0 1-.816 1.08c-.368.296-.78.52-1.236.672a4.093 4.093 0 0 1-1.32.228c-.584 0-1.12-.124-1.608-.372a4.324 4.324 0 0 1-1.272-1.008 4.807 4.807 0 0 1-.816-1.416 4.64 4.64 0 0 1-.288-1.596Z" fill="#fff"/></svg>